<?xml version="1.0" encoding="UTF-8"?>
<svg width="59px" height="22px" version="1.1" viewBox="0 0 187.45 70.079" xmlns="http://www.w3.org/2000/svg" xmlns:cc="http://creativecommons.org/ns#" xmlns:dc="http://purl.org/dc/elements/1.1/" xmlns:osb="http://www.openswatchbook.org/uri/2009/osb" xmlns:rdf="http://www.w3.org/1999/02/22-rdf-syntax-ns#">
<metadata>
<rdf:RDF>
<cc:Work rdf:about="">
<dc:format>image/svg+xml</dc:format>
<dc:type rdf:resource="http://purl.org/dc/dcmitype/StillImage"/>
<dc:title/>
</cc:Work>
</rdf:RDF>
</metadata>
<g transform="translate(-15.703 -28.599)">
<path transform="scale(.26458)" d="m329.31 108.59-2.9707 3.2383-7.9531 33.031 5.3672 0.66406v0.69336l-3.6309 0.69531-1.6094 1.7988-0.47265 2.5254v6.2832h-3.8828v-2.9375h-4.5781v3.0156h-6.1875v-2.8672h-4.3633v2.9121h-6.6641v-2.7793h-4.6191v2.7246h-7.082v-2.7988h-4.2617v2.8086h-6.0449v-2.8906h-4.8438v2.791h-5.3984v-2.7891h-11.523l-0.48828 11.025-182.95 1.002-5.3027 13.889v87.82l4.7988 10.607 139.65-30.557 76.014-19.951 10.912 7.457 8.6367 15.291 1.7285 15.48-26.104 37.287-6.0957 26.447 0.82813 11.945 18.35 7.2324 15.4 1.3398 48.527 16.025 61.428 5.3574v-1.875l58.76-5.3027-5.6816-126.39 6.7559 7.9551 243.83-14.205 3.9141-12.5h45.836v-17.174h-46.342l-1.8945-33.65-19.256-0.12695v-8.3106h-3.127v-8.1035l-1.7969-2.9356h-1.3262v-13.795l-1.7207-21.037-2.9023-0.49024h-4.2402l-5.0254 22.537-1.3262 11.553h2.8086l-0.55273 1.5801h-3.6602l-1.8867 2.1641v8.1914h-4.2871v-2.4766h-4.3301v2.5449h-6.4512v-2.4121h-4.2617v2.4336h-7.0098v-2.5h-4.1523v2.4102h-7.0977v-2.4316h-4.5098v2.5449h-6.0703v-2.5449h-4.2852v2.4316h-5.6035v-2.4102h-11.793v5.5586l-8.541 2.9238-87.59-0.40234 3.6602-21.518-6.3965 0.97656-5.9668 1.9902-7.3691 6.9434-5 11.25h-137.39v-8.2812h-3.2383v-8.1133l-2.9805-3h-5.8574l1.2051-0.89453 3.0566-0.58008v-36.342zm70.689 140.16 1.6074 28.66h-58.393l-0.53711-15 11.965-10.625 41.697 0.98242zm1.5352 32.83 3.9141 85.863-53.664-9.2188-37.232-8.582 1.7871-18.84 7.1426-23.48 19.91-25.67z" fill="#c5c5c5" stroke="#000" stroke-width="1px"/>
</g>
</svg>
