<?xml version="1.0" encoding="UTF-8"?>
<svg width="36px" height="22px" version="1.1" viewBox="0 0 157.49 116.89" xmlns="http://www.w3.org/2000/svg" xmlns:cc="http://creativecommons.org/ns#" xmlns:dc="http://purl.org/dc/elements/1.1/" xmlns:rdf="http://www.w3.org/1999/02/22-rdf-syntax-ns#">
<metadata>
<rdf:RDF>
<cc:Work rdf:about="">
<dc:format>image/svg+xml</dc:format>
<dc:type rdf:resource="http://purl.org/dc/dcmitype/StillImage"/>
<dc:title/>
</cc:Work>
</rdf:RDF>
</metadata>
<g transform="translate(-15.638 -34.258)">
<path d="m152.28 34.394c-1.7882-0.05643-5.2909 0.51088-7.0158 0.98556-2.4795 0.68231-5.4122 1.6704-5.4122 1.6704l-2.6059 1.5702-2.372 2.1047-3.3075 1.8709-5.9467 5.8799-3.4077 4.6104-2.5056 4.1761-0.63477 2.9734 1.2027 4.7106 0.96885 1.637 1.7707 1.9377-3.9756 5.6795-3.5413-2.7729-1.0691-0.30068h-1.8709l-6.6483-1.3363-3.3409-3.7418-6.0863-1.7694-3.3073-4.4176-8.5135-3.1006-1.9711 1.7205-3.7131-3.6045-1.2284 0.23624-0.51972 1.2993 3.6616 3.5435-1.2993 1.0631-0.73233 0.8032-5.8823-1.1576-3.6262 1.3111-0.04884 0.62325-0.35915-0.03341-0.50948 0.81851-2.5975 0.16704-2.3637 2.3553-1.6621 0.53454 0.17539 0.77675-1.7373 1.6704-0.40926 2.8314-2.4305 0.37585-0.05846 1.3196 0.43431 1.2862 1.5619-0.25892-0.2716 1.5835-14.654 16.165-1.4533 3.9088 0.41761 2.7562-2.9567 2.7061-5.8131 5.7797-0.26727 2.5892 1.8375 4.6605 2.8564 2.656-4.4601 4.1427-11.843 4.3264-5.0614 0.26727v1.4867l-1.8876 0.70158 0.57368 3.7294 6.7209-2.4096 8.4336-0.34254-0.87407 0.63783-0.42153 1.6255 1.0273 1.3196-2.8147 1.495 0.16704 1.1526 0.59301 1.47 0.62641 1.1025 3.4578-1.9126-4.7733 4.2953 1.252 2.0434 1.6891 0.74415 4.205-3.7916 0.89769 1.0631-9.6015 8.4579 2.6059 2.1214 8.9702-8.4023 1.2194 1.3029 0.81851 0.96885 1.5368 0.91874 3.1086-0.26491 0.81501-0.90951 1.2284 0.70871 1.513-1.5722-0.58465-1.353 1.0774-1.1359 0.10857-3.0731 3.2532 0.0204 1.2117-0.98898 1.2875 0.73233 1.2107-0.92722 0.51972 0.99218 8.6757-4.2699 0.47247 2.1025 4.4082 3.0816 8.5729-0.99092 24.56-4.0454 9.505 6e-3 10.347 0.47247 0.8032-0.23623 0.4016 2.2442-0.28348 4.6302-2.2442 5.268-0.0473 0.8977 1.5355 0.94494 2.7876-7.6776 0.54334-4.4648-0.35435-2.2915 2.0792-0.46138 0.71829 3.6248 1.9711 1.3531 0.65147-0.10023 0.0334 3.274-2.2718 5.0614 0.96885 1.0858 1.5201-0.50113 1.2361 1.019 5.0948-5.6294 0.63477-9.0204-1.3196-5.2619 3.7251-2.7562-1.3865-12.395-1.8709-1.5702-1.9544-1.754-4.94-11.002-0.37798-11.292-3.5908-4.6066 0.63172-0.46064 0.86027 0.41761 1.0357-0.76005-0.31738-0.91874 0.56795-0.39255 0.0585-0.87698 1.0106-0.7517 1.0273 0.15034 0.92709-0.5763 0.97721 0.45937 1.044-0.60553-0.0167-0.56377 1.9878 0.31738 3.376 0.15577 3.5081 0.15355 0.41342 0.61421 0.6024 0.59059 0.79138 0.35435 1.3229-0.48428 0.83863-0.72052 0.4016-0.49609 1.0985 0.92132 3.3663-1.2048 3.1656-1.4883 3.8742-1.2048 6.2839-3.1183 2.2442-1.819 2.764-5.9531 1.7009-7.0871-0.99219-5.3625-2.3387-6.3783-3.5672-6.3075-4.6066-2.8584s-2.4657-0.92185-4.2857-1.5125c-1.1773-0.38207-3.6907-0.52909-4.9278-0.56813z" fill="#c6c6c6" stroke="#000" stroke-width=".26458px"/>
<path d="m70.4 138.9 1.3614-1.3614 0.46772-8.0515-1.7038-8.1851-4.1761-9.9558 5.1115-14.6-2.7395-2.5391-1.8041-2.5057-14.433 4.0759-8.0682-3.5914" fill="none" stroke="#fff" stroke-opacity=".5" stroke-width=".26458px"/>
<path d="m34.611 107.34 2.761 0.1921 5.1027 1.3229 6.7563 2.7876 3.6853 10.3 1.7481 5.7169 1.5119 6.3783 0.14765 2.9588" fill="none" stroke="#fff" stroke-opacity=".5" stroke-width=".26458px"/>
<path d="m144.27 52.722c0.29953-0.23841 2.1049-0.21784 3.9451 1.3165 1.1463 1.0897 1.3912 3.0075 1.3881 3.4848-0.3311 0.15485-2.4975-0.61851-3.7561-2.008-1.0809-1.235-1.6476-2.3927-1.577-2.7933z" fill="#cdcdcd" stroke="#fff" stroke-opacity=".50196" stroke-width=".265"/>
<path d="m148.5 78.336 0.50537-1.3621 5.1115-2.9066-0.3675-0.46772-0.0668-2.4722 3.2072-3.1738 3.8086-1.47 2.6393 0.13363 1.47 1.6704 0.16704 4.2763-0.0209 0.32685" fill="none" stroke="#000" stroke-width=".26458px"/>
<path d="m157.14 74.184-1.4867-0.58465-0.0668-1.47 0.91874-1.8375 1.8542-1.5869 2.2551-0.98556 1.3698 0.50113 0.28397 1.4867-1.0357 2.1549-2.1214 1.5535z" fill="none" stroke="#fff" stroke-opacity=".50196" stroke-width=".26458px"/>
<path d="m139.21 47.034c0.31717-0.77216 0.20504-1.9733-0.31892-3.1537-0.40024-1.1768-1.0964-1.3955-1.5355-1.5592-1.3656-0.32346-1.5191-0.19507-1.9017 0.17718-0.10065 0.62824 0.0705 0.98472 0.21261 1.3702 0.58271 0.9876 1.0946 1.4056 1.6773 1.9253 0.73778 0.53385 1.4548 1.1411 1.8663 1.2402z" fill="none" stroke="#fff" stroke-opacity=".50196" stroke-width=".26458px"/>
</g>
</svg>
