<?xml version="1.0" encoding="UTF-8"?>
<svg width="34px" height="22px" version="1.1" viewBox="0 0 12.029 7.7518" xmlns="http://www.w3.org/2000/svg" xmlns:cc="http://creativecommons.org/ns#" xmlns:dc="http://purl.org/dc/elements/1.1/" xmlns:rdf="http://www.w3.org/1999/02/22-rdf-syntax-ns#">
<metadata>
<rdf:RDF>
<cc:Work rdf:about="">
<dc:format>image/svg+xml</dc:format>
<dc:type rdf:resource="http://purl.org/dc/dcmitype/StillImage"/>
<dc:title/>
</cc:Work>
</rdf:RDF>
</metadata>
<g transform="translate(-78.005 -139.82)" stroke-width=".034567px">
<path d="m78.485 147.5-0.4615-0.79953 0.05594-0.20868 1.6142-0.93171-0.36331-0.62941 0.05794-0.21614 1.2434-0.71773 0.23234 0.0623 0.1344 0.23284 0.2082-0.12018-0.18978-0.32879 0.05481-0.20447 1.0705-0.61795 0.17004-0.33514-0.02405-0.22433 0.06804-0.072 1.3222-0.76323 0.06124-1.4e-4 0.17631 0.12139-0.02891-0.22296 0.06246-0.0624 1.2782-0.73783 0.11759-0.0316 0.17724 0.13846 0.31014 9e-3 0.09913 0.0683 0.22141 0.38358 0.1548-0.0892-0.13101-0.22698 0.06053-0.22582 1.2243-0.70669 0.23366 0.0626 0.17224 0.29839 0.20154-0.11633 1.4e-5 -0.13076 0.1125-0.19482 0.21503-0.12413 0.22532 8e-5 0.20478 0.11826 1.1857 2.0541-0.20361 0.25295-0.0024 0.03-0.24574 0.27191-0.14029 1.9e-4 -0.34063-0.59012-0.22489 0.1298 0.17667 0.30606-0.05424 0.20237-1.2536 0.72363-0.21291-0.0571-0.13192-0.22855-0.15905 0.0918 0.22912 0.39693 8.4e-4 0.12532-0.13801 0.25857 0.03319 0.22779-0.08082 0.0808-1.2691 0.73252-0.09535 0.0255-0.17938-0.13043 0.0229 0.21862-0.08351 0.0836-1.2715 0.73396-0.09206 0.0247-0.18562-0.13905-0.38338-0.018-1.0868 0.62734-0.18185-0.0488-0.19093-0.33077-0.20499 0.11833 0.14075 0.24383-0.05566 0.20763-1.2511 0.72215-0.21413-0.0574-0.36421-0.63096-1.6258 0.93845z" fill="#9e9d9e" stroke="#000"/>
<path d="m82.062 146.13-1.0641-1.8385" fill="none" stroke="#fff"/>
<path d="m81.206 144.17 1.0614 1.8401" fill="none" stroke="#fff"/>
<path d="m80.318 146.62-0.62484-1.0555" fill="none" stroke="#fff"/>
<path d="m85.72 144.86-1.8046-3.1134" fill="none" stroke="#fff"/>
<path d="m87.22 143.14-1.067-1.851" fill="none" stroke="#fff"/>
<path d="m87.379 143.05-1.0708-1.8488" fill="none" stroke="#fff"/>
<path d="m88.855 142.11-0.98742-1.7007" fill="none" stroke="#fff"/>
</g>
</svg>
