<?xml version="1.0" encoding="UTF-8"?>
<svg width="36px" height="22px" version="1.1" viewBox="0 0 162.38 98.776" xmlns="http://www.w3.org/2000/svg" xmlns:cc="http://creativecommons.org/ns#" xmlns:dc="http://purl.org/dc/elements/1.1/" xmlns:rdf="http://www.w3.org/1999/02/22-rdf-syntax-ns#">
<metadata>
<rdf:RDF>
<cc:Work rdf:about="">
<dc:format>image/svg+xml</dc:format>
<dc:type rdf:resource="http://purl.org/dc/dcmitype/StillImage"/>
<dc:title/>
</cc:Work>
</rdf:RDF>
</metadata>
<g transform="translate(-10.768 -38.126)">
<path transform="scale(.26458)" d="m456.61 144.6v19.777l-24.197 16.965v16.695h-47.053v4.375h12.5l-34.91 9.9004h-103.81l-8.3711-7.1328h-69.072l-17.055 11.229v-1.4062h-85.223l-5.9824-59.152-5.4473-4.7754-22.23 1.7402-3.125 3.75s-1.3851 3.9738-1.4297 4.1523l7.25 83.205-3.25 85.295h1.7363l-1.4941 21.275 41.025 28.84 52.896 23.184 14.568-2.1152v-0.80469h9.502l-0.48828 117.29 27.049-2.0605 56.098-20.357v-94.445h17.426l24.496 11.996 47.098 42.049 23.613-24.75 39.127-57.35 69.4 0.71875 12.059-8.0176 8.082-29.674-0.75782-8.207h46.721l-2.2676 49.117v80.176l3.3711 12.582v6.3008h32.42v-6.1875l3.8301-11.898v-82.59l-2.0938-47.689h27.049v-15.881h1.9648l1.8906-6.1172v-8.8125h54.402v-27.021h-54.33v-4.3438h10.492l22.834-34.42 11.273-12.635v-21.025l-27.277-0.66992-8.8398 9.9102-8.6602 8.1445h-83.346l-11.188-11.189v-0.45704h6.5195v-3.7734h-27.574v-6.7871h-14.68v-46.92zm-332.14 146.65 29.107 15.893v31.785l-19.822 25.357-35.893-11.785-25.535-15.447v-8.125h9.7305v-20.625zm218.73 19.371 6.6914 22.477-2.1465 12.248-22.854 32.451-60.068-24.047v-43.035zm121.28 0.12696 7.4492 24.307-6.6914 23.549-36.086-1.8484-19.51 0.84766 0.22265-1.6809 25.195-0.44194-4.0781-44.677z" fill="#c2c2c2" stroke="#000" stroke-width="1px"/>
</g>
</svg>
