<?xml version="1.0" encoding="UTF-8"?>
<svg width="57px" height="22px" version="1.1" viewBox="0 0 199.88 76.585" xmlns="http://www.w3.org/2000/svg" xmlns:cc="http://creativecommons.org/ns#" xmlns:dc="http://purl.org/dc/elements/1.1/" xmlns:rdf="http://www.w3.org/1999/02/22-rdf-syntax-ns#">
<metadata>
<rdf:RDF>
<cc:Work rdf:about="">
<dc:format>image/svg+xml</dc:format>
<dc:type rdf:resource="http://purl.org/dc/dcmitype/StillImage"/>
<dc:title/>
</cc:Work>
</rdf:RDF>
</metadata>
<g transform="translate(-3.9966 -68.435)">
<path d="m99.023 68.567v4.1636l-4.9279 3.4494v3.391h-5.5072v0.8785h2.4686l-7.1344 1.9942h-21.273l-1.7715-1.51h-14.073l-3.4799 2.374v-0.33073h-17.281l-1.2402-1.0511-19.743-0.84336-0.59273 0.74311-0.33435 0.90227 1.3818 6.2735v20.879l20.814 6.5314v-0.39274l1.0552 0.75706 10.817 4.7139 2.8479-0.43873v-0.20257h2.0355v24.027l5.6322-0.42633 11.25-4.115v-19.371h3.638l5.0736 2.4892 9.5462 8.6196 4.9361-5.1537 7.985-11.713 5.4079 0.0248 4.7651 3.3786 4.0638-0.85783 2.4422-4.0282 1.6707-5.9888-0.2005-1.804h9.5534l-0.4253 10.321-0.0243 16.281 0.80357 2.4639v1.2878h6.6466v-1.2966l0.66249-2.4727v-16.988l-0.39532-9.5886h5.579v-3.2944h0.3762l0.40153-1.1457v-1.9492h8.6878v4.0871h15.608l5.0281-0.77102h41.943v-12.494h-41.876l-5.1284-0.78652h-15.585v4.5439h-8.6692v-1.0025h2.1544l4.5439-6.782 2.4887-2.8396v-4.3599h-5.6627l-1.7875 1.9379-1.7286 1.6955h-17.125l-2.3456-2.3456h1.4475v-0.79788h2.2443v-11.068zm-63.966 30.131 6.0239 3.3073v6.4492l-4.0866 5.1971-7.1691-2.419-3.4618-1.9983v-6.9928zm69.713 3.9687 1.4888 4.9744-1.2888 4.8116-8.3943-0.41755-3.0401 0.12506 0.10025-0.29197 5.1284-0.0253-0.84491-9.1524zm-40.91 0.0139 16.034 0.01 1.4175 4.5119-0.44907 2.575-4.6772 6.6854-12.325-4.8664z" fill="#bebebe" stroke="#000" stroke-width=".26458px"/>
</g>
</svg>
