<?xml version="1.0" encoding="UTF-8"?>
<svg width="37px" height="22px" version="1.1" viewBox="0 0 181.27 107.77" xmlns="http://www.w3.org/2000/svg" xmlns:cc="http://creativecommons.org/ns#" xmlns:dc="http://purl.org/dc/elements/1.1/" xmlns:rdf="http://www.w3.org/1999/02/22-rdf-syntax-ns#">
<metadata>
<rdf:RDF>
<cc:Work rdf:about="">
<dc:format>image/svg+xml</dc:format>
<dc:type rdf:resource="http://purl.org/dc/dcmitype/StillImage"/>
<dc:title/>
</cc:Work>
</rdf:RDF>
</metadata>
<g transform="translate(-17.085 -37.358)">
<path d="m78.879 37.491v5.9056h-9.5674v10.938l-0.37827 0.30696 0.16536-5.5749-0.51056-4.6157h-15.535v5.1449l7.5003 2.3048 1.7539 2.7399-0.58498 3.3574-6.0415 5.3842h-1.5358l-3.9098 0.49609-4.3935 2.4097-3.3455 10.352-11.927 18.327-13.324 42.924 14.694 7.1034 22.568-0.46767 2.7564-21.248 3.2406-4.995-2.3218-6.0131 1.5389-8.9881 16.101-1.2852 7.6672 8.6863h33.977l3.7832-4.3098v-19.778l1.4283-0.23358v0.83251h40.137l2.0314 5.348h11.553v-19.218l4.0147 4.5868h13.867v-19.537h3.9455v-7.8667h-3.898v-10.667h-11.515v2.3043h-26.92v-1.018h-69.53l-0.01707 2.3053h-0.41754v-2.7047h-3.6463v-3.236zm6.1128 11.018h25.725v1.9715h-2.8396v7.9179h2.9399v1.2361h-3.3574v-10.521h-22.467zm42.178 0.13384v1.8459h-2.1048v-1.8206zm0.0424 9.7364v1.2464h-1.8717v-1.2284zm-19.703 7.7866h3.4913l0.21911 12.077h-22.336l-3.8421-0.21704v-0.60151l22.467-0.01035zm19.661 0v3.8923h-1.7704v-3.8757zm-29.918 21.665h15.928v18.439l-0.68523 1.0382h-26.468l-4.8276-5.763 1.5772-0.17725 0.47232-10.89 5.5986-2.4572-0.76584 2.5332 2.4557 7.968 4.8276 6.1056h2.5471l-3.0319-5.8715v-6.2808z" fill="#c4c4c4" stroke="#000" stroke-width=".26458px"/>
</g>
</svg>
