<?xml version="1.0" encoding="UTF-8"?>
<svg width="77px" height="22px" version="1.1" viewBox="0 0 190.51 42.527" xmlns="http://www.w3.org/2000/svg" xmlns:cc="http://creativecommons.org/ns#" xmlns:dc="http://purl.org/dc/elements/1.1/" xmlns:rdf="http://www.w3.org/1999/02/22-rdf-syntax-ns#">
<metadata>
<rdf:RDF>
<cc:Work rdf:about="">
<dc:format>image/svg+xml</dc:format>
<dc:type rdf:resource="http://purl.org/dc/dcmitype/StillImage"/>
<dc:title/>
</cc:Work>
</rdf:RDF>
</metadata>
<g transform="translate(-10.291 -41.729)">
<path d="m135.13 41.861v2.6391l-2.835 3.4556h-0.49609v1.5121h-0.25993l-0.15348 0.73226h-0.68523l-0.19017-0.71055h-0.32918l-0.19947 0.74414v1.171h-2.1156l-1.0847 1.6314h-0.16278v-1.7999h-3.3957v-0.63046l-6.2808 0.11731v0.67644l-2.5063 0.40669-2.9766 0.08268v0.62632l-17.112 0.03256v-0.10335l7.2605-0.786 0.18397-1.3446-7.6006-0.01707-0.08372-2.0795-1.1694-0.70176h-1.3947l-1.2955 0.74827-0.12816 4.2757h-4.4101l-0.43098 0.52503v3.561h-2.2629l-3.8835 2.7249-6.1671 5.3899-8.6703-2.0908 2.6262-8.4439v-2.2552h-38.353v1.8877l-18.141-0.016537v28.063h14.633v0.47594h16.19v-9.4589l16.767-0.1881 3.1471 8.7638 1.465 2.3384 10.985 0.30748 3.1419-0.02379 1.4883-0.2837v-1.2754l-1.5828-0.2837 2.9714-10.512 5.5831-2.3508 0.16743-0.86041v1.7332l1.8412 1.712 2.08 0.58446 2.0267-0.31109 3.9336-1.0273 1.1813-1.3942v-3.638l6.6394-0.14366-0.63511 4.2426 0.38447 0.21704 1.1193-4.5098 0.58446-0.05013 3.007 16.203 19.026-3.8923-2.3389-12.846 2.5725-0.45114 0.25062-1.0687 9.2542 1.5431h25.23l3.3491-1.9337h3.7605l0.26717-1.8314h19.06v-4.0757h12.695v-4.4514h-14.847v-5.8038h-2.835v5.8115l-1.9317 0.5178h-12.125v-1.4526l-0.30076-1.0862-2.6562-0.63459h-20.288l-1.0749 0.91932h-1.311v-1.2521h-1.1224v-1.7482l-2.6717-0.95912v-5.596zm45.848 15.117 1.4196 0.55139h-13.397v-0.46767zm-87.58 9.2739v3.6261l-2.0903 1.571-2.0319 0.28319-1.8423-1.3229h1.3937l-0.68523-4.0395z" fill="#b8b8b8" stroke="#000" stroke-width=".26458px"/>
</g>
</svg>
