<?xml version="1.0" encoding="UTF-8"?>
<svg width="100px" height="22px" version="1.1" viewBox="0 0 197.87 28.612" xmlns="http://www.w3.org/2000/svg" xmlns:cc="http://creativecommons.org/ns#" xmlns:dc="http://purl.org/dc/elements/1.1/" xmlns:rdf="http://www.w3.org/1999/02/22-rdf-syntax-ns#">
<metadata>
<rdf:RDF>
<cc:Work rdf:about="">
<dc:format>image/svg+xml</dc:format>
<dc:type rdf:resource="http://purl.org/dc/dcmitype/StillImage"/>
<dc:title/>
</cc:Work>
</rdf:RDF>
</metadata>
<g transform="translate(-7.4275 -18.81)">
<path d="m130.82 18.943v2.481h-15.915l-0.92139 0.78238h-0.9803v-1.0749h-9.1126l-0.11886-0.4439h-0.35347v0.46199h-0.67334l-0.11317-0.4222h-0.21756l-0.17931 0.31058v1.1508h-1.7462l-0.8444 1.2578h-0.22427v-1.4526h-2.6681v-0.46974l-5.1366 0.14159v0.5054l-2.0758 0.33073h-2.2856v0.51986l-13.832 0.08268v-0.17156l5.8761-0.58446 0.10594-0.99994h-6.1138v-1.5953l-1.0072-0.58136h-1.1643l-1.0036 0.57929-0.19895 1.8645v1.4366h-3.5166l-0.35036 0.35088v2.7719h-1.8051l-3.2732 2.1559-4.8943 4.0592-6.3314-1.6035 2.1384-6.4647v-1.7203h-30.034v1.3364l-14.29 0.040307v21.592h11.504v0.3545h12.615v-7.3236l13.016-0.0708 2.5399 6.6973 1.1694 1.819 8.4403 0.24391 2.2882-0.06718 1.2361-0.21704v-1.0191l-1.2862-0.11679 2.4055-8.1184 4.5181-1.7699 0.13901-0.65578v1.3286l1.5177 1.3203 1.6387 0.44493 1.6077-0.2589 3.2241-0.81856 0.94154-1.0449v-2.7874l5.3728-0.10128-0.53485 3.2908 0.40101 0.15038 0.81856-3.4913 0.50126-0.05013 2.4221 12.428 15.401-2.9735-1.9394-9.8557 2.1022-0.3545 0.23616-0.82682 7.4182 1.1813h20.447l2.6727-1.4702h3.0065l0.26768-1.403h3.207v-3.207h-3.0954v-0.17983h22.289l1.2196 0.447h1.7539v2.3719h46.121v-8.3519h-46.137v2.5389h-1.7958l-1.278 0.42581h-22.172v-1.1643l-0.30696-1.0041-0.36639-0.04702v-2.9213zm-58.178 14.615v2.7642l-1.7126 1.2165-1.6536 0.20102-1.3699-0.98082h1.0273l-0.56689-3.0825z" fill="#b8b8b8" stroke="#000" stroke-width=".26458px"/>
</g>
</svg>
