<?xml version="1.0" encoding="UTF-8"?>
<svg width="27px" height="22px" version="1.1" viewBox="0 0 160.13 132.62" xmlns="http://www.w3.org/2000/svg" xmlns:cc="http://creativecommons.org/ns#" xmlns:dc="http://purl.org/dc/elements/1.1/" xmlns:rdf="http://www.w3.org/1999/02/22-rdf-syntax-ns#">
<metadata>
<rdf:RDF>
<cc:Work rdf:about="">
<dc:format>image/svg+xml</dc:format>
<dc:type rdf:resource="http://purl.org/dc/dcmitype/StillImage"/>
<dc:title/>
</cc:Work>
</rdf:RDF>
</metadata>
<g transform="translate(-19.839 -20.94)">
<path d="m144.41 21.072-3.3254 2.5476-21.219 2.2128-0.53123 0.44855h-73.33l-9.1876-4.1646-2.8696 0.07803-1.3699 4.0628-9.5204 22.549v16.867h2.0319l11.461 7.2244 2.9399 9.3209-13.197 27.863-5.0312 16.541-1.2826 15.866 13.397 5.2452 42.228 5.6798 0.38447-2.1384-5.78-8.4357v-15.752l10.206-32.026 19.938-1.1808h16.962l-2.2205 1.3229v6.0001l45.806 9.5912 4.5403-12.306 10.824-3.7414 3.5579-22-6.6146-3.2406 1.819-10.849v-37.585zm-42.357 44.669h12.302l3.9987 6.9252v18.805h-17.836l-10.654-3.3781-2.4097-14.505 8.0558-6.5676-1.4981 6.4792v5.9133l5.6798 5.9805h2.6727l-2.1384-5.7464v-6.2141z" fill="#c2c2c2" stroke="#000" stroke-width=".26458px"/>
</g>
</svg>
