<?xml version="1.0" encoding="UTF-8"?>
<svg width="56px" height="22px" version="1.1" viewBox="0 0 153.38 60.496" xmlns="http://www.w3.org/2000/svg" xmlns:cc="http://creativecommons.org/ns#" xmlns:dc="http://purl.org/dc/elements/1.1/" xmlns:rdf="http://www.w3.org/1999/02/22-rdf-syntax-ns#">
<metadata>
<rdf:RDF>
<cc:Work rdf:about="">
<dc:format>image/svg+xml</dc:format>
<dc:type rdf:resource="http://purl.org/dc/dcmitype/StillImage"/>
<dc:title/>
</cc:Work>
</rdf:RDF>
</metadata>
<g transform="translate(-22.44 -29.792)">
<path d="m90.379 29.976-2.3105 1.65-0.84439-1.1105-5.4731 3.0102v1.4201h-2.9399v-0.96893l-7.0161-0.10025-6.0983 7.4941v0.41961l-35.086 0.26303v-1.7038l-2.0495-6.8988-3.2132 1.8666 0.82682 5.3862v5.9154l-3.5905 13.4 1.7896 2.4774 6.2187-16.123v-0.80305l35.056 0.32194v0.26252l4.8441 5.9133 1.403 1.9709 6.6652 0.08372 0.10594-2.1549h3.3517l2.6722 2.3192v3.2722l-9.6547 16.258 11.06 5.9128v-2.4334l4.592-9.7772 14.909 0.11524 4.1992-9.7565h5.1082v0.2837l5.3036 17.977 10.005 13.961 5.5046-4.1574v-0.25994l-8.1974-12.025-4.3418-12.637-0.53485-12.462 0.4346-0.06666-0.10025 2.0381 41.895-4.8276 0.0832-0.63459 10.733 0.12299v-4.4292h-10.737v-1.8898h4.3465v-3.3662h-2.3151v-3.3667h-0.90951v3.3548l-18.089-0.08113 0.5178-1.186v-1.2196h-4.1424v1.1193l0.43408 1.2361-54.039-0.35088-0.92708-1.0775 2.2469-1.6035zm4.8948 27.76h2.0314v5.6456l2.6934 2.4572-1.3942-3.0474 0.7798-4.8901h8.339l-2.8866 8.6656h-13.697z" fill="#c9c9c9" stroke="#000" stroke-width=".26458px"/>
</g>
</svg>
