<?xml version="1.0" encoding="UTF-8"?>
<svg width="59px" height="22px" version="1.1" viewBox="0 0 196.93 73.541" xmlns="http://www.w3.org/2000/svg" xmlns:cc="http://creativecommons.org/ns#" xmlns:dc="http://purl.org/dc/elements/1.1/" xmlns:rdf="http://www.w3.org/1999/02/22-rdf-syntax-ns#" xmlns:xlink="http://www.w3.org/1999/xlink">
<metadata>
<rdf:RDF>
<cc:Work rdf:about="">
<dc:format>image/svg+xml</dc:format>
<dc:type rdf:resource="http://purl.org/dc/dcmitype/StillImage"/>
<dc:title/>
</cc:Work>
</rdf:RDF>
</metadata>
<g transform="translate(-6.4567 -25.951)">
<path transform="scale(.26458)" d="m388.79 98.584v16.779h-0.42187v-4.957h-4.5938v5.0977h-5.8555v-5.0137h-4.5977v5h-6.4824v-5.0371h-4.4199v4.957h-6.2188v-4.8516h-4.5312v4.9316h-5.4121v-4.9102h-4.7031v4.9238h-10.152l-4.2637-9.2988h-31.768l-5.8398 9.332v20.043h-11.545v3.75l-246.83 0.04492-6.1582 16.125 3.748 53.25-3.8398 51.428 6.3418 16.289h247.5v2.9082h63.928v96.16h25l11.072-11.07v-108.93h4.6426v-32.857l5.8926-29.285 9.9668 2.6719h31.105l6.123-4.4199v-22.76h0.66211v8.2578h37.818v3.6738l3.5996 2.9043 0.18945 15.152-4.8594 18.135v43.17h34.324v-44.285l-4.7266-17.635v-14.686l3.9238-2.8809v-3.4727h13.701l4.6719 5.4922v15.91h11.805v-29.736l-4.8398-8.3848v-13.27h-1.8574v-0.98047h9.9102v11.385l3.4609 3.459h66.373l6.2129-3.5879h151.37v-47.863h-152.32l-5.2852-3.0508h-66.322l-2.9082 2.9102-0.42383 1.6934v-1.9726h-9.9277v-3.377h-12.975v3.4082h-4.8301v-1.9727h-14.506v-3.1719l-1.4199-1.4219h-7.8926l-1.8848 1.8867v2.6289h-50.469v-8.6191zm142.17 26.232h9.7871v3h-9.8184zm-17.771 0.0957h4.8926v2.998h-4.8613zm-0.13086 21.203h5.2227l0.0215 1.0508h-5.2441zm-235.08 9.3223v5.334h11.555l4.041 5.873 43.299 2.3281 5.1113 5.1113-1.8086 11.184-11.121 38.924h-1.1367l-5.9648 8.5234v19.295l-3.7852 2.6777h-39.432v5.8027h-180.44l-47.289-13.887-4.2949-38.891 4.4199-38.387 46.752-13.857zm132.65 5.3652h15.658l7.0078 8.334v19.951l-5.1777 3.7891h-29.357l-7.7656-8.2715v-15.531l4.6094-8.207h4.041l-1.3262 9.5332v9.7852l8.5859 10.291 4.166-1.6406-3.8516-8.9024v-8.7129z" fill="#c4c4c4" stroke="#000" stroke-width="1px"/>
</g>
</svg>
