<?xml version="1.0" encoding="UTF-8"?>
<svg width="53px" height="22px" version="1.1" viewBox="0 0 192.35 80.262" xmlns="http://www.w3.org/2000/svg" xmlns:cc="http://creativecommons.org/ns#" xmlns:dc="http://purl.org/dc/elements/1.1/" xmlns:rdf="http://www.w3.org/1999/02/22-rdf-syntax-ns#">
<metadata>
<rdf:RDF>
<cc:Work rdf:about="">
<dc:format>image/svg+xml</dc:format>
<dc:type rdf:resource="http://purl.org/dc/dcmitype/StillImage"/>
<dc:title/>
</cc:Work>
</rdf:RDF>
</metadata>
<g transform="translate(-11.207 -9.3643)">
<path d="m99.337 9.4966-1.2997 1.0278-0.06667 0.61753-3.3073 0.10852-0.68884-0.68936h-8.2646v10.027h8.2408l0.66714-0.66714h1.7539l-0.22427 1.3048h-4.5594l-0.89762 1.311h-4.1103v0.75603l-3.6933-0.28215-0.25787 2.42v1.8893h-3.083v2.0087h3.9662l0.19482 0.19482v0.12144h-17.858v-4.5625l-1.1203-1.5296h-31.286l-1.4702 1.4702-1.2376 4.6199h-11.391v-0.27647l-0.32556-0.32556-4.7692-0.02532-1.6371 3.7083-0.93534 3.174-0.33693 20.421 0.92139 4.9863 6.9159-0.03307 0.33073-1.5456 0.80305-0.11214 0.0057 2.882 1.4883-0.04703 0.01809-3.0474 8.9054-1.3875 1.3028 0.53485 5.5206 30.92 17.506-3.7419-5.2591-30.684 2.7197-1.5301v-7.1996l7.32-3.9088h16.182l5.1496 3.9217v5.3862l0.59066 2.4092-3.4964 6.8983-4.1103 4.9139-6.0947 15.261 15.97 0.16536 6.8032-14.151-1.11-5.2441 5.8348-1.1813h23.946l0.22118-14.528 2.5632-3.898v-0.46095l7.5055 0.31574v3.1238h-0.56792v3.374h6.1309l-0.41806 11.226v18.375l0.73019 2.7244v1.5534h7.4672v-1.6536l0.8506-2.7404v-18.359l-0.51987-11.076h14.363v-2.7166h17.505v-7.5721h5.3744v-0.76843h8.4357l0.62374 1.0806h13.658v-6.6931h-13.597l-0.59169 1.0247h-8.54v-4.7656h-0.18913v-7.0332l-0.2589-1.0025-1.5286-2.2634h-1.2697v10.398l-1.3948 4.6855h-0.73484v-7.0823l-0.41754-0.60151h-44.609l-0.43563 0.75499v2.1931l-7.5825 0.35089v-0.95188h4.5522v-2.6479h-7.1164v-1.3364h-0.98546v-2.5802h-10.315v-0.80254l14.491 0.65474 3.685-10.985-18.159 0.62528v-0.32608l-1.2444-0.90175zm-0.68523 14.257h11.103l-1.5358 3.0153h-2.1632v-2.8401h-1.804v2.8065h-1.8795l-1.311-2.7171h-2.2583l-0.57516 0.33176-0.30437-0.17622zm2.3595 27.829h7.4998l0.26769 8.3354h-13.163v-7.5003l0.66818-0.81804h1.9043l-0.38447 1.8872 0.30076 3.976 1.4201 2.0211 0.45062-0.05013-0.7183-1.9043v-3.8587z" fill="#c3c3c3" stroke="#000" stroke-width=".26458px"/>
</g>
</svg>
