<?xml version="1.0" encoding="UTF-8"?>
<svg width="61px" height="22px" version="1.1" viewBox="0 0 194.13 73.429" xmlns="http://www.w3.org/2000/svg" xmlns:cc="http://creativecommons.org/ns#" xmlns:dc="http://purl.org/dc/elements/1.1/" xmlns:rdf="http://www.w3.org/1999/02/22-rdf-syntax-ns#">
<metadata>
<rdf:RDF>
<cc:Work rdf:about="">
<dc:format>image/svg+xml</dc:format>
<dc:type rdf:resource="http://purl.org/dc/dcmitype/StillImage"/>
<dc:title/>
</cc:Work>
</rdf:RDF>
</metadata>
<g transform="translate(-8.2357 -15.369)">
<path d="m88.847 15.49-1.1888 0.93963-0.06053 0.56504-3.0252 0.1009-0.62999-0.63062h-7.5596v9.1716h7.5378l0.61018-0.61044h1.6043l-0.20508 1.1931h-4.1704l-0.82107 1.1994h-3.7596v0.69116l-3.3782-0.25856-0.23585 2.2135v1.7282h-2.82v1.8374h3.6278l0.17821 0.17784v0.11351h-16.335v-4.1733l-1.0248-1.3991h-28.618l-1.3448 1.3447-1.132 4.2258h-10.419v-0.25225l-0.29778-0.29765-4.3623-0.02522-1.4974 3.392-0.8555 2.9033-0.30825 18.679 0.84276 4.5609 6.3259-0.02522 0.30245-1.4137 0.73455-0.10088 0.0051 2.6361 1.3613-0.03784 0.01645-2.7875 8.1457-1.2692 1.1916 0.48936 5.0496 28.282 16.013-3.4226-4.8104-28.066 2.4877-1.3995v-6.5855l6.6955-3.5754h14.802l4.7103 3.5872v4.9267l0.54032 2.2036-3.1981 6.3099-3.7597 4.4947-5.5748 13.959 14.608 0.15132 6.2228-12.944-1.0153-4.7968 5.337-1.0809h21.903l0.2023-13.289 2.3445-3.5655v-0.42126l6.8652 0.28883v2.8573h-0.51951v3.0861h5.6079l-0.38241 10.268v16.807l0.66783 2.492v1.4209h6.8302v-1.5125l0.77806-2.5067v-16.793l-0.47552-10.131h13.138v-2.4848h16.012v-6.9261h4.9159v-0.70251h7.716l0.0508 7.1309 31.203-0.09449-0.0945-17.934-31.052-0.04725-0.0215 6.7485h-7.8114v-4.3591h-0.17303v-6.4332l-0.23687-0.91692-1.3982-2.0703h-1.1614v9.5109l-1.2758 4.2858h-0.67212v-6.4781l-0.38191-0.5499h-40.803l-0.39842 0.6899v2.006l-6.9356 0.32035v-0.87026h4.1638v-2.4221h-6.5093v-1.2221h-0.90142v-2.36h-9.435v-0.73404l13.255 0.59909 3.3706-10.048-16.61 0.57134v-0.29766l-1.1383-0.82485zm-0.62671 13.041h10.156l-1.4048 2.7581h-1.9787v-2.5978h-1.6502v2.567h-1.7192l-1.1992-2.4853h-2.0656l-0.52606 0.30396-0.27836-0.16143zm2.1582 25.455h6.86l0.24481 7.6243h-12.04v-6.8605l0.6112-0.74791h1.7418l-0.35164 1.7261 0.27508 3.6368 1.299 1.8487 0.41218-0.05044-0.65698-1.7419v-3.5295z" fill="#c3c3c3" stroke="#000" stroke-width=".24201px"/>
</g>
</svg>
