<?xml version="1.0" encoding="UTF-8"?>
<svg width="102px" height="22px" version="1.1" viewBox="0 0 194.17 42.082" xmlns="http://www.w3.org/2000/svg" xmlns:cc="http://creativecommons.org/ns#" xmlns:dc="http://purl.org/dc/elements/1.1/" xmlns:rdf="http://www.w3.org/1999/02/22-rdf-syntax-ns#">
<metadata>
<rdf:RDF>
<cc:Work rdf:about="">
<dc:format>image/svg+xml</dc:format>
<dc:type rdf:resource="http://purl.org/dc/dcmitype/StillImage"/>
<dc:title/>
</cc:Work>
</rdf:RDF>
</metadata>
<g transform="translate(-8.5137 -38.19)">
<path d="m71.751 38.322v5.301h-5.1377l-1.5596 1.0253h-18.527v6.9923h-2.5037v-1.866h-3.0122v-0.44907h4.3765v-2.1379h-4.3708v-0.53124h-8.6599v0.54157h-20.533v-1.5074l-3.1776-0.0031v18.131h3.2132v-3.083h20.48v0.42737h8.6946v-0.40928h4.4054v-2.2505h-4.4292v-0.48421h3.0236v-1.9136h2.5042v3.6856l2.3032 2.3032h8.6346l0.82682 2.2681-0.9095 1.5746-4.6147 4.6152-2.6153 3.6318-0.76688 1.3276 0.27285 1.018 9.6645 3.5843 0.91881-1.2025v-2.7647l5.9299-8.9788 3.3063 0.82062h6.1774l1.5591-2.1735v-3.7326h1.3586v-3.5197h1.4645v14.468l1.2185 4.4767 12.344 0.93586 3.174-5.518v-14.434h0.3545v5.3976l0.21446 0.80047h7.3923l19.801-0.67903 0.30075-0.83509v-4.9558h10.248v-0.83251h1.2697v0.61805h4.0757v-0.65164h4.5713l1.0041 0.28732h1.3488v-4.2375h-1.5198l-0.73278 0.29817h-4.6798v-0.22428l0.65319-1.1307v-0.2713h41.225v0.52606h20.236v-4.9532h-20.245v0.55139h-41.234v-0.57619h-0.64337l-0.36742-1.7787h-3.3745l-0.3421 1.6702-0.58859 0.13901v0.53744h-2.5688v-3.637h-29.358v2.9021h-4.8772v-3.8504h-19.248v-0.45837l-2.7864-4.8261zm-39.411 10.997v0.40928h-0.50953v1.8376h-1.6118v4.6018h1.6371v1.9461h0.46767v0.41755h-20.464v-9.1943zm103.41 2.7564v0.31161l0.64957 1.125v0.15865h-1.2444v-0.81855h-1.9296v-0.76016zm-31.983 1.8288v0.71003h-4.8193v-0.66818zm-27.44 8.1778-0.10645 3.7088-1.2283 1.5358-5.0968-0.14211-1.6087-1.1358h2.4138l-0.09198-3.9424z" fill="#c7c7c7" stroke="#000" stroke-width=".26458px"/>
</g>
</svg>
