<?xml version="1.0" encoding="UTF-8"?>
<svg width="25px" height="22px" version="1.1" viewBox="0 0 161.83 140.24" xmlns="http://www.w3.org/2000/svg" xmlns:cc="http://creativecommons.org/ns#" xmlns:dc="http://purl.org/dc/elements/1.1/" xmlns:rdf="http://www.w3.org/1999/02/22-rdf-syntax-ns#">
<metadata>
<rdf:RDF>
<cc:Work rdf:about="">
<dc:format>image/svg+xml</dc:format>
<dc:type rdf:resource="http://purl.org/dc/dcmitype/StillImage"/>
<dc:title/>
</cc:Work>
</rdf:RDF>
</metadata>
<g transform="translate(-16.602 -20.151)" stroke-width=".26458px">
<path d="m17.439 95.415c-1.7992 3.3486 0.06818 7.2167 3.0068 11.493 3.1828 4.692 6.8914 8.8721 10.824 7.9513l19.778-13.898 2.2384-0.36749 5.0781 6.6817-0.33409 0.90203-19.644 13.831c-1.8708 4.8281 0.8389 8.0304 3.4411 12.228 1.4042 1.5298 5.2039 8.6062 10.824 7.0158l19.305-13.685 2.8281-0.51371 1.1693 1.1192-17.419 12.466c-3.1432 3.6783 1.2454 9.3179 3.0033 12.106 2.755 3.5233 6.2053 8.984 11.092 7.1495l19.336-13.594 3.7798-0.73233 0.99219 0.56696 1.2757-0.3071 6.4965-1.819 49.42-34.868 0.44885-2.1261-0.44885-1.819 0.96857-0.66146 2.5277-3.6144 20.708-14.625c1.167-2.9115-4.1264-11.345-5.3454-12.996-1.7908-1.8713-6.9359-9.1965-9.7166-7.5308l-20.363 14.481-4.1577 1.2757 19.672-13.805c1.6046-3.6858-3.7688-11.28-5.8033-13.66-2.1425-2.3788-6.5309-8.1581-9.0636-7.1201l-20.647 14.566-3.675 1.2027-3.9088-4.8443 1.637-2.3386 20.678-14.586c0.89997-3.9974-4.6744-12.418-5.2238-12.881-2.5644-3.3247-7.3874-8.8918-9.9754-7.5785l-20.346 14.466-4.8777 1.5034-0.30068 0.33409-2.4388-1.3363-1.637 0.43431-1.9711 1.5034-1.7707-5.1115-2.0713-0.63476-4.1427 1.7373-0.70158 1.1693 2.6393 7.0492-41.594 29.5-3.5555 5.0449-0.14174 1.3229-2.197 4.1105z" fill="#d0d0d0" stroke="#000" stroke-opacity=".25703"/>
<path d="m88.659 106.64c2.1649 4.5847 3.8776 5.7812 7.7249 8.5753l25.123-17.826c-2.4099-4.5481-4.3296-6.0944-7.9179-8.4524z" fill="none" stroke="#fff" stroke-opacity=".55"/>
<path d="m84.624 41.594 4.0584 11.606-1.6064 0.56696-1.3229 2.7876 4.1105 11.953 2.8821 1.1339 9.2132-3.1183 1.3229-2.8348-4.0632-11.434-2.8821-1.4647-0.75595 0.18899-4.9095-13.595" fill="none" stroke="#fff" stroke-opacity=".55"/>
</g>
</svg>
