<?xml version="1.0" encoding="UTF-8"?>
<svg width="20px" height="22px" version="1.1" viewBox="0 0 135.06 147.9" xmlns="http://www.w3.org/2000/svg" xmlns:cc="http://creativecommons.org/ns#" xmlns:dc="http://purl.org/dc/elements/1.1/" xmlns:rdf="http://www.w3.org/1999/02/22-rdf-syntax-ns#" xmlns:xlink="http://www.w3.org/1999/xlink">
<metadata>
<rdf:RDF>
<cc:Work rdf:about="">
<dc:format>image/svg+xml</dc:format>
<dc:type rdf:resource="http://purl.org/dc/dcmitype/StillImage"/>
<dc:title/>
</cc:Work>
</rdf:RDF>
</metadata>
<g transform="translate(-40.827 -20.748)">
<path transform="scale(.26458)" d="m360.5 78.918c-3.5945 1.0751-5.8656 2.7169-7.7031 4.5449l-29.293 41.039-4.6719 3.4082h-13.006l-6.0606 3.2832v4.9219h6.8438l-1.9199 1.2031h-107.54c-26.825 7.1604-38.521 36.424-42.336 59.914v124.2h28.051v135.36h-26.43v154.36c2.7831 17.411 15.954 22.965 24.895 25.758h441.44c22.216-4.0437 28.169-20.148 33.334-44.193v-93.957h-27.879v-161.25h27.5v-54.285h8.5703v-34.287h-8.5703v-73.035c-6.0623-19.368-12.397-36.425-33.393-38.75h-105.88l-4.2949-25.143-3.7871 1.8945-3.2832-2.0195-5.9336 2.3984-25.633-31.82c-4.1196-2.287-7.7035-3.141-11.113-3.5352zm7.6387 34.029h93.203l4.9102 24.434h-98.238c1.2324-0.96546 2.6537-1.5533 3.6621-2.9668 0.59394-1.881-0.6139-3.6966-2.2734-5.4941-1.3724-1.3118-5.0922-1.3046-7.6387-1.957zm140.85 199.95 30.557 19.572-0.50391 30.178-50.129-0.63086-5.0508-14.016 0.63086-19.951 5.6816-14.773zm-187.03 0.49805h66.785l-3.0352 49.107-20 21.428-16.787 4.1074-36.285 5.7148v-71.764l9.1426-0.37891zm237.41 52.029v133.59h-5.4297l-94.299-53.658h-45l17.857-16.072 31.428-51.428 75.115-8.0156z" fill="#c9c9c9" stroke="#000" stroke-width="1px"/>
<path d="m134.67 82.787-13.13-8.5526-35.346 0.26727-1.47 2.1382 0.46194 6.279" fill="none" stroke="#000" stroke-width=".26458px"/>
<path d="m166.22 89.297h-21.545l-1.915-1.3318" fill="none" stroke="#000" stroke-width=".26458px"/>
<path d="m147.98 89.391 0.0228 7.2934" fill="none" stroke="#000" stroke-width=".26458px"/>
</g>
</svg>
