<?xml version="1.0" encoding="UTF-8"?>
<svg width="40px" height="22px" version="1.1" viewBox="0 0 169.99 96.544" xmlns="http://www.w3.org/2000/svg" xmlns:cc="http://creativecommons.org/ns#" xmlns:dc="http://purl.org/dc/elements/1.1/" xmlns:rdf="http://www.w3.org/1999/02/22-rdf-syntax-ns#" xmlns:xlink="http://www.w3.org/1999/xlink">
<metadata>
<rdf:RDF>
<cc:Work rdf:about="">
<dc:format>image/svg+xml</dc:format>
<dc:type rdf:resource="http://purl.org/dc/dcmitype/StillImage"/>
<dc:title/>
</cc:Work>
</rdf:RDF>
</metadata>
<g transform="translate(-26.257 -53.976)">
<path transform="scale(.26458)" d="m566.83 204.51c-4.3243 0.24279-9.5846 7.0781-9.5058 9.5957l2.0527 25.178-6.25-2.3203-2.9473 1.3379c-5.9955-9.6577-26.737-4.7373-22.32 13.125l-7.5898 2.5898-0.26758-1.9648-38.303-2.4102-23.125-11.25-27.236 8.8418-243.07 131.45c-1.8027 25.742-4.4128 40.823 1.7324 40.516l9.7324 3.3027 0.17774 6.0723-15.357 5.3555-45.803 24.645 2.5449 41.58-41.543 21.844 1.2637 27.527 18.939 18.182 18.184-5.8086 28.789-15.908 16.668 18.055 5.6816 4.2949 41.615-14.23 43.75-23.035 23.215-7.8574 6.25-3.9297 48.941-16.482 120.46-64.396 3.2832-11.365-1.0117-6.8184 10.102-3.0293 45.836-25.506-0.37891-16.416c27.062-5.6699 30.858-19.373 17.945-38.844l-14.41-51.186-6.1856-13.764 6.6914-2.3984c1.0795 3.8353 15.111 15.519 26.643 1.8926l2.3984 31.568c0.60549 5.3577 2.6018 9.0929 5.2207 12.102l161.08 91.691c2.8558 0.17802 9.2312-2.9648 10.48-10.48l-7.5762-88.01c-0.72106-4.9307-2.2458-9.5384-6.3125-13.131l-159.63-90.16c-0.2781-0.0456-0.56132-0.0572-0.84961-0.041zm-27.646 34.744c1.5016-1e-3 3.2486 0.47343 5.2266 1.6016l-1.8301 1.8945c0.68497 4.1479 1.0451 7.699 0.12696 8.5859l-4.6719-3.3457-4.7363 1.5781c-1.6968-4.2168 0.52179-10.309 5.8848-10.314zm7.8789 21.174 10.291 6.3144c-2.8716 10.938-12.472 5.4267-15.721 1.3242zm-105.81 0.64258c6.0683 3.1227 12.12 6.6872 18.303 6.6055l0.35743 0.71485-1.6074 0.625-2.6777 5.5352 5.9824 14.107-12.848 4.2832-13.51-1.5137-7.7949 11.473-10.045 5.1777-4.1309-1.498-49.75 16.287-118.82 63.893-4.041 12.502-19.57 10.479 4.6719-32.451z" fill="#b7b7b7" stroke="#000" stroke-width="1px"/>
<path d="m72.666 140.51 0.37798-1.6536-1.2757-14.93-11.953-12.804-6.9217 2.2679" fill="none" stroke="#000" stroke-width=".26458px"/>
<path d="m73.044 138.86 3.0711-1.0394-1.1339-15.733-11.67-12.331 0.56641-1.9784 11.34-5.9118 2.0789-4.1577 32.051-16.591" fill="none" stroke="#000" stroke-width=".26458px"/>
</g>
</svg>
