<?xml version="1.0" encoding="UTF-8"?>
<svg width="35px" height="22px" version="1.1" viewBox="0 0 175.67 111.4" xmlns="http://www.w3.org/2000/svg" xmlns:cc="http://creativecommons.org/ns#" xmlns:dc="http://purl.org/dc/elements/1.1/" xmlns:rdf="http://www.w3.org/1999/02/22-rdf-syntax-ns#">
<metadata>
<rdf:RDF>
<cc:Work rdf:about="">
<dc:format>image/svg+xml</dc:format>
<dc:type rdf:resource="http://purl.org/dc/dcmitype/StillImage"/>
<dc:title/>
</cc:Work>
</rdf:RDF>
</metadata>
<g transform="translate(-18.426 -29.165)">
<path d="m29.4 75.637c-34.108 23.108 20.924 67.738 45.97 64.546l20.045-6.949 4.3705 2.0816 4.2522 3.4963 3.7798 1.6064 31.296-13.331 2.7395-2.5391 30.201-13.631 11.76-9.3544 0.11805-2.5445 0.43704-0.37798 0.86226-4.7129-2.197-1.63c15.847-6.4654 16.786-29.422-12.851-52.515-22.026-14.869-37.938-10.903-48.91-6.3733-31.299 13.672-61.834 27.802-91.874 42.229z" fill="#c7c7c7" stroke="#000" stroke-width=".26458px"/>
<path d="m95.415 133.23 7.7508-5.3454 2.0045-8.9535 4.8108-12.228 19.243-8.6863 4.6104 1.7373 0.66817 2.8731 8.2185-3.3409 0.80181-3.3409 0.86862 2.6059 8.2854-4.009 0.33408-3.2741 2.4054-5.2118 19.243-9.0872 8.6194 6.5481-1.7372 7.8845 1.4921 0.89088" fill="none" stroke="#000" stroke-width=".26458px"/>
<path d="m134.47 102.69-7.3938-3.6804" fill="none" stroke="#000" stroke-width=".26458px"/>
<path d="m144.37 98.619-1.3293-0.59758" fill="none" stroke="#000" stroke-width=".26458px"/>
<path d="m183.93 99.018-24.019 13.563-10.477 5.0046-3.7418 5.1917" fill="none" stroke="#000" stroke-width=".26458px"/>
<path d="m141.85 124.55 2.6753-2.244-1.5214-1.9182-7.8357 3.7479-28.718 10.477-8.0448-3.4612" fill="none" stroke="#000" stroke-width=".26458px"/>
<path d="m181.54 91.406-4.557-3.1939-18.943 9.1206-3.1805 4.0224 1.029 4.1627-0.18709 2.8063 4.2095 4.2563" fill="none" stroke="#000" stroke-width=".26458px"/>
<path d="m106.45 134.61 1.0997-5.0306 5.4901-12.039 18.852-8.2682c0.84965 0.11765 1.3821-0.21778 3.0427 1.0583 2.3148 2.5631 2.46 4.5295 2.3151 6.4161l-3.9688 8.0698" fill="none" stroke="#000" stroke-width=".26458px"/>
<path d="m52.198 134.33v-50.233c2.7384-5.5431 18.219-11.552 30.542-17.446 10.65 3.6239 5.9382 11.39 25.584 1.5435 0.45977-0.13411 3.0586-0.08397 7.9513 1.4032 5.58 3.4164 3.2841 6.4099 12.254 2.2451 8.0053-2.9819 5.8722-5.3346 2.1515-8.8867-0.74583-2.2439-0.77288-3.5122-0.65481-4.5837 3.8644-2.0679 9.3215-3.888 10.666-6.348-4.5249-2.7637-8.3855-4.892-11.476-6.2839l23.729-10.988 5.3788-1.4032" fill="none" stroke="#fff" stroke-opacity=".5" stroke-width=".265"/>
</g>
</svg>
