<?xml version="1.0" encoding="UTF-8"?>
<svg width="39px" height="22px" version="1.1" viewBox="0 0 178.49 99.779" xmlns="http://www.w3.org/2000/svg" xmlns:cc="http://creativecommons.org/ns#" xmlns:dc="http://purl.org/dc/elements/1.1/" xmlns:rdf="http://www.w3.org/1999/02/22-rdf-syntax-ns#" xmlns:xlink="http://www.w3.org/1999/xlink">
<metadata>
<rdf:RDF>
<cc:Work rdf:about="">
<dc:format>image/svg+xml</dc:format>
<dc:type rdf:resource="http://purl.org/dc/dcmitype/StillImage"/>
<dc:title/>
</cc:Work>
</rdf:RDF>
</metadata>
<g transform="translate(-17.107 -13.169)">
<path transform="scale(.26458)" d="m464.42 50.273v25.842l-4.6426 3.6172-1.7422 7.7227h-22.098v12.545h-15.447v21.562h-277.54l-52.223 45.871-24.652 0.06641v139.46l-0.89453 22.678 191.43 2.6797 6.25-24.645-0.0898-73.213 1.9199-1.6973 0.54102 71.604 32.262 35.607v57.77h82.453l48.361-70.711 13.637-4.041 23.992-32.955h100.13v7.1973l-9.4707 4.293v119.09l5.7656 5.7656h43.355l5.9629-5.9629v-118.77l-9.627-4.6719v-6.1875h3.7891v-29.904h23.268l22.232 41.25h10.246v-81.613h77.164v-33.477h-77.232v-26.605l-13.928-35.447v-29.441l-8.1934-0.87109-7.041 27.951-7.6387 6.9766v-25.854h-15.689v-3.5039h-22.697v-12.816h-22.98v-7.7656l-4.7031-3.5039h-45.344l-14.951-25.898zm14.598 196.69-1.7852 12.945 2.1426 12.143 10.535 9.4648h3.2148l-4.8223-9.2852-0.44531-12.68 5-12.5h37.232l-0.89257 39.107h-66.787l-4.375-24.018 7.5-15.09zm-87.836 0.0176 7.4492 23.359-31.818 41.164-42.049-0.12695-20.707-33.209 10.354-31.061z" fill="#c1c1c1" stroke="#000" stroke-width="1px"/>
</g>
</svg>
