<?xml version="1.0" encoding="UTF-8"?>
<svg width="50px" height="22px" version="1.1" viewBox="0 0 180.32 79.154" xmlns="http://www.w3.org/2000/svg" xmlns:cc="http://creativecommons.org/ns#" xmlns:dc="http://purl.org/dc/elements/1.1/" xmlns:rdf="http://www.w3.org/1999/02/22-rdf-syntax-ns#">
<metadata>
<rdf:RDF>
<cc:Work rdf:about="">
<dc:format>image/svg+xml</dc:format>
<dc:type rdf:resource="http://purl.org/dc/dcmitype/StillImage"/>
<dc:title/>
</cc:Work>
</rdf:RDF>
</metadata>
<g transform="translate(-16.207 -24.495)">
<path d="m100.18 24.627v5.4736l-0.93535 0.66818-0.38396 1.7208h-4.6943v2.6391h-3.1905v4.5584h-58.277l-11.009 9.6619h-5.0317l0.02325 28.608-0.33073 5.2917 40.302 0.54364 1.2283-5.103v-15.355l0.5209-0.3545v15.063l6.6368 7.2497v12.361h17.35l10.195-14.877 2.9058-0.92139 4.9609-6.8507 21.01 0.04703v1.4206l-1.9332 0.85214v25l1.1922 1.1922h9.11l1.1188-1.1188v-25.007l-1.9136-0.94516v-1.2516h0.84491v-6.2885h4.7775l4.7015 8.5561h2.1554v-18.011h1.679l2.2216 2.99h49.395l1.588-0.58446v-9.9787l-1.6418-0.64544h-49.341l-2.205 3.0737h-1.7038v-6.4647l-2.9399-7.3665 0.0599-6.3505-1.7715-0.1416-1.4645 5.8704-1.6423 1.4526v-5.3857h-3.2479v-0.75603h-4.7129v-2.6934h-4.8431v-1.6299l-1.0392-0.73226h-9.4496l-3.1182-5.4808zm0.21239 41.329 2.8582 0.02376-0.36587 2.6221 0.4253 2.6458 2.1968 1.9844h0.70849l-1.124-2.1058v-2.5053l1.0356-2.6396h7.8176l-0.2005 8.2021h-14.015l-0.88418-5.0028zm-15.547 0.04237 1.5534 4.8271-6.7148 8.6196h-8.8036l-4.3289-6.9215 2.0319-6.52z" fill="#c2c2c2" stroke="#000" stroke-width=".26458px"/>
</g>
</svg>
