<?xml version="1.0" encoding="UTF-8"?>
<svg width="80px" height="22px" version="1.1" viewBox="0 0 203.62 56.08" xmlns="http://www.w3.org/2000/svg" xmlns:cc="http://creativecommons.org/ns#" xmlns:dc="http://purl.org/dc/elements/1.1/" xmlns:rdf="http://www.w3.org/1999/02/22-rdf-syntax-ns#">
<metadata>
<rdf:RDF>
<cc:Work rdf:about="">
<dc:format>image/svg+xml</dc:format>
<dc:type rdf:resource="http://purl.org/dc/dcmitype/StillImage"/>
<dc:title/>
</cc:Work>
</rdf:RDF>
</metadata>
<g transform="translate(-3.3404 -17.925)">
<path d="m142.95 18.057-18.148 4.1429h-9.1374l-0.53227-0.92242h-2.157v0.22531l-0.54002 0.14521v0.54777h-3.3497v-1.0826l0.4961-0.49609v-1.4883h-5.4632v1.5239l0.51419 0.51366v1.0278h-13.314l-0.5147-0.89194h-2.0913v0.17932l-0.5612 0.32401v0.38189h-6.9892l-4.9671-1.3312h-22.787v8.5426h22.805l4.7899-1.2831h7.5892v5.827h-32.529v-1.1023h-1.8542l-1.3694 1.7203h-46.694v-3.8272l-2.6696 0.02377v39.381h2.6929v-1.5358h11.93v-7.1815l12.607-7.5995h1.9379v7.8341h17.961v-7.8884h0.85059v-5.0793h11.323l1.7704 2.0598-1.2361 4.2096-2.2717 2.9063-2.3053 1.8376-3.0515 5.8301-0.30592 6.7314 1.2025 1.203 12.876 0.40514 1.4413-1.2289-0.02379-6.6378 0.85783-7.0714 5.0111-1.3529 8.9039-0.21704 2.6474-4.5852 0.46302-2.2944 0.67282-1.7007 0.51987-2.3151h21.956l1.6707 1.6242 1.9043-1.6702h0.3173v0.35088h46.806l-0.27854 0.27854v1.897l0.24546 0.14159 0.18759 0.70022h0.31833v1.2134l-1.0785 0.28887 2.727 7.9251 3.4075-1.9213 0.68471-1.5699h30.335l0.54054 1.2304v1.1576h0.72037v-1.264l0.37207-0.37207 2.251 0.46767 0.74311 0.74311h1.0025l2.0454-2.2324v-3.5786l-1.8903-1.8903h-1.1219l-0.86248 1.016-2.1968 0.41341-0.52555-0.52555h-0.5612l-0.44855 1.2578h-11.446v-1.2046h-0.9095v1.2283h-16.466l0.31884-0.82114-1.1395-0.37775v-1.1948h8.3592v-0.72657l0.19172-0.05116v-2.2459h-0.23358v-3.7724h21.448v-2.2495h-14.257v-0.82682h14.282v-1.4531h-21.458v-3.7977h-0.16537v-0.69092h-62.484v-5.8999h9.7565l18.307 4.0576h24.664v-14.065zm-52.031 10.043 21.946 0.04754-0.3545 4.4411h-21.32zm-3.9688 22.464 0.22634 2.2867-2.1807 3.777h-5.1284l-0.56792-3.7915 0.91881-2.172zm-12.178 0.1173 3.1647 0.01394-0.54209 2.0236 1.403 3.8814h-1.788l-2.2376-1.2919z" fill="#c7c7c7" stroke="#000" stroke-width=".26458px"/>
</g>
</svg>
