<?xml version="1.0" encoding="UTF-8"?>
<svg width="72px" height="22px" version="1.1" viewBox="0 0 179.25 43.656" xmlns="http://www.w3.org/2000/svg" xmlns:cc="http://creativecommons.org/ns#" xmlns:dc="http://purl.org/dc/elements/1.1/" xmlns:rdf="http://www.w3.org/1999/02/22-rdf-syntax-ns#">
<metadata>
<rdf:RDF>
<cc:Work rdf:about="">
<dc:format>image/svg+xml</dc:format>
<dc:type rdf:resource="http://purl.org/dc/dcmitype/StillImage"/>
<dc:title/>
</cc:Work>
</rdf:RDF>
</metadata>
<g transform="translate(-12.861 -27.554)" stroke="#000" stroke-width=".26458px">
<path d="m87.206 27.687v1.311l-0.20051 1.9844-1.2051 2.6934v3.0711h-0.47904v-0.49403l-1.357-1.2154h-3.113l-0.68523-0.59428-0.37775-1.0749-0.51986-0.24805-0.75603 0.01188-0.555 0.75603-0.44855 1.3937 0.44855 0.50798 1.772 0.43718v0.48422h-3.1776v-2.9176h-4.146l-2.5632 1.7131v1.2283h-3.9212l-6.0833 1.2991-6.5908 0.82682v0.96842h-4.9847v-1.0392h-34.088v-0.82682l-1.1813 0.0708v20.954h1.2046l26.06-6.7371v-5.9464h8.0181v-1.604h4.7775v3.3409l0.83199 2.9027h3.4137v1.1813l-9.5793 14.635-0.41186 1.5374 1.2387 0.68316 7.7308 2.0712 0.78497-2.08 6.1805-11.192 3.2406-0.40101 8.8367-0.16692 1.3736-0.6935 7.5799-5.5707h19.552l0.23616-0.64182h13.47v1.4268h34.695v-1.4366h30.569v1.0025h4.193v-1.0191h2.8231v-4.8049h-2.7962v-0.54312h3.39v-0.6382h1.571v-4.7966h-1.5637v-0.4718h0.1757v-2.297h-0.80873v-0.58033h-0.3359v-0.54312h-3.9171l-1.1358 0.79375-3.082 0.26717-0.12506 0.09198h-77.216l0.9803-0.56689-0.14211-1.7896-2.8345-0.94464h-5.5619l-1.1441-0.74982v-5.0204zm92.466 11.318v0.58446h-74.952v-0.55139zm-0.0858 5.301v0.66146h3.2008v0.5519h-30.51v-1.2025zm-103.32 6.6384 0.37775 0.55501-2.4334 5.0198-7.89-0.31884-1.0868-3.2246 1.2046-2.0195z" fill="#c7c7c7"/>
<path d="m66.441 50.956h-1.3111l0.1063 2.0198" fill="none"/>
</g>
</svg>
