<?xml version="1.0" encoding="UTF-8"?>
<svg width="35px" height="22px" version="1.1" viewBox="0 0 165.54 104.29" xmlns="http://www.w3.org/2000/svg" xmlns:cc="http://creativecommons.org/ns#" xmlns:dc="http://purl.org/dc/elements/1.1/" xmlns:rdf="http://www.w3.org/1999/02/22-rdf-syntax-ns#">
<metadata>
<rdf:RDF>
<cc:Work rdf:about="">
<dc:format>image/svg+xml</dc:format>
<dc:type rdf:resource="http://purl.org/dc/dcmitype/StillImage"/>
<dc:title/>
</cc:Work>
</rdf:RDF>
</metadata>
<g transform="translate(-23.96 -19.856)" stroke-width=".26458px">
<path d="m37.916 20.009-0.37775 6.0239-5.4322 11.719-4.2773 3.2587-2.8345 12.568 12.615 8.1737 2.5513 8.1266-2.5084 8.7323-6.381 10.457-7.1494 33.543 21.515 1.403 20.981-0.33434 2.2717-27.796 6.6146-21.783 10.49 2.0712 28.732-0.40049 5.3454-15.168 50.38 0.16692 14.566-5.8467 4.3491-23.032v-6.3784h-30.049l-0.75913-4.5325-6.0637-0.41754-1.7875 4.9945h-95.883l-1.4867-3.0903zm59.224 35.01h14.316l2.9766 6.3309-2.5275 11.41-26.379 0.33796-8.1184-6.0808 0.76843-3.7083 5.3454-8.2853 6.3185 0.0186-1.3229 8.1266 3.2603 8.6935h3.3543l-0.51831-8.6036z" fill="#c5c5c5" stroke="#000"/>
<path d="m86.793 25.608v6.3783h23.009v-6.3783" fill="none" stroke="#fff" stroke-opacity=".5"/>
</g>
</svg>
