<?xml version="1.0" encoding="UTF-8"?>
<svg width="58px" height="22px" version="1.1" viewBox="0 0 194.72 74.349" xmlns="http://www.w3.org/2000/svg" xmlns:cc="http://creativecommons.org/ns#" xmlns:dc="http://purl.org/dc/elements/1.1/" xmlns:rdf="http://www.w3.org/1999/02/22-rdf-syntax-ns#">
<metadata>
<rdf:RDF>
<cc:Work rdf:about="">
<dc:format>image/svg+xml</dc:format>
<dc:type rdf:resource="http://purl.org/dc/dcmitype/StillImage"/>
<dc:title/>
</cc:Work>
</rdf:RDF>
</metadata>
<g transform="translate(-8.2532 -15.169)">
<path d="m85.693 15.301v1.6702l-0.28422 3.6582-1.5694 3.6788-1.2991 0.45475-0.2129 6.1128h-6.4725v-1.3229l-0.94516-0.94516h-4.702v0.21549l-0.91002-0.91054h-3.483l-0.85524 0.85524v1.7828l0.93844 0.93844h2.7988v1.1426l-1.5653 2.5621h-8.5664v1.0542h-5.1614v-1.1141h-41.828l-2.0112-1.1617-1.1793 0.03721v11.125l2.6701 24.979 1.0868-0.11834 11.628-15.29-0.35088 5.2953 8.3023-6.4565h9.3953v-0.61702h1.5002v-6.5236h10.749v-1.3668h8.8749v0.32246h2.1379v4.8157h2.0392l4.4648 2.1854 1.1457 1.2635 0.93328-0.02326-0.7736 4.7713-10.282 17.18 13.364 4.1264 1.403-0.55139 0.25063-1.1694-1.2196-1.5369 7.5453-12.379v-0.64957h14.855l0.18397 0.46715 2.3218-0.35088 0.0667 0.15038 0.61805-0.05012 1.9709-0.40101 0.37052 4.2359 2.9998 10.938 5.3862 10.961 15.403-7.1339-4.394-8.8827-2.5988-9.2604-0.33073-4.1103 1.0397-0.14159 0.50798-0.27182-0.0475-0.60255-0.85008-0.63769v-8.6408l2.3632-1.1818v-0.64337h0.1881v0.15451h32.943v22.969h6.2539v-23.019h7.6176v-6.3975h3.5243v0.86041h2.8613v-0.82682h6.9928v0.93328h2.9114v-0.94516h4.2897v0.88883h12.147v-5.0819h-12.166v0.45475h-4.2406v-0.49609h-0.3545v-1.695h-2.2557v-1.3699h4.9428l3.2778-1.8784v-1.4764h-11.15v0.50798h-0.34262v4.2525h-6.6973v1.5353h-0.23616v0.59066h-3.4964v-7.2052h-46.955v0.42736h-0.092v-0.16691h-15.484v-4.5362l-0.9803-0.9803-8.3509-0.46095-2.4453-2.1849-0.04703-0.56741-1.7746-6.8218zm97.796 22.033v0.52607h-6.966v-0.50953zm-93.897 16.287h6.5247l2.5223 2.3719 0.80202 2.6892-0.8599 2.4081v0.25993l-0.709 0.86248v0.43667h-9.9927l-2.0908-1.5591-0.41341-1.1813h4.2168z" fill="#c8c8c8" stroke="#000" stroke-width=".26458px"/>
</g>
</svg>
