<?xml version="1.0" encoding="UTF-8"?>
<svg width="64px" height="22px" version="1.1" viewBox="0 0 200.42 68.843" xmlns="http://www.w3.org/2000/svg" xmlns:cc="http://creativecommons.org/ns#" xmlns:dc="http://purl.org/dc/elements/1.1/" xmlns:rdf="http://www.w3.org/1999/02/22-rdf-syntax-ns#">
<metadata>
<rdf:RDF>
<cc:Work rdf:about="">
<dc:format>image/svg+xml</dc:format>
<dc:type rdf:resource="http://purl.org/dc/dcmitype/StillImage"/>
<dc:title/>
</cc:Work>
</rdf:RDF>
</metadata>
<g transform="translate(-5.2302 -32.24)">
<path d="m76.84 32.373-0.29972 5.0943-1.4175 3.2365-1.2402 0.40153-0.13281 5.6674h-5.9965v-1.1529l-0.894-0.89348h-4.4349l-0.7059-0.7059h-3.238l-0.78083 0.78083v1.7255l0.80357 0.80408h2.5756v1.0454l-1.448 2.5079h-7.8476v0.91106h-4.8901v-1.0868h-38.641l-1.8216-1.0521-1.0676 0.03617v10.146l2.4469 23.216 0.92708-0.0832 10.753-14.179h0.11834l-0.39584 4.8369 7.7013-5.9412h8.6579v-0.57309h1.3643v-6.0182h9.9694v-1.2929h8.2326v0.31574h1.9751v4.5439h1.8542l3.9088 1.8541 1.2506 1.2707h0.9095l-0.68161 4.4002-9.5302 15.869 12.328 3.8504 1.2945-0.50953 0.2005-1.0862-1.094-1.4113 7.0032-11.51v-0.51728h4.147l0.01963-0.07441h9.5942l0.12402 0.4501 2.1673-0.31316 0.08268 0.1416h0.632l1.7999-0.4253 0.28836 3.9631 2.7368 9.9575 4.9372 10.335 14.34-6.7448-4.0902-8.1194-2.3885-8.569-0.3173-3.792 1.3746-0.39067v-0.5023l-0.709-0.61392v-8.0615l2.1203-1.0811v-0.60823h0.18294v0.11834h30.51v21.296h5.7645v-21.349h6.9804v-5.8632h3.3047v0.78548h2.6365v-0.77566h6.5924v0.85059h2.5724v-0.87436h4.0292v2.8231h31.526v-8.6222h-31.487v2.4391h-4.0091v-0.51418h-0.34727v-1.4821h-2.1001v-1.2945h4.6188c1.0498-0.4947 2.0666-1.0784 3.0065-1.8712v-1.187l-10.244-0.09457v0.50798h-0.34261v3.9331h-6.225v1.3818h-0.23616v0.62632h-3.3192v-6.6735h-43.243v0.37h-0.23358v-0.18345h-14.306v-4.2499l-0.85008-0.85059-7.7458-0.42891-2.2552-2.0877-1.8169-6.7825zm83.99 20.33 6.4978 0.01654v0.53485h-6.4978zm-80.415 15.062h5.9769l2.4567 2.28 0.69712 2.4216-0.83871 2.4567-0.66146 0.82682 0.09457 0.41341h-9.3669l-1.8898-1.3705-0.44855-1.2516h3.9688z" fill="#c8c8c8" stroke="#000" stroke-width=".26458px"/>
</g>
</svg>
