<?xml version="1.0" encoding="UTF-8"?>
<svg width="80px" height="22px" version="1.1" viewBox="0 0 190.51 52.308" xmlns="http://www.w3.org/2000/svg" xmlns:cc="http://creativecommons.org/ns#" xmlns:dc="http://purl.org/dc/elements/1.1/" xmlns:rdf="http://www.w3.org/1999/02/22-rdf-syntax-ns#">
<metadata>
<rdf:RDF>
<cc:Work rdf:about="">
<dc:format>image/svg+xml</dc:format>
<dc:type rdf:resource="http://purl.org/dc/dcmitype/StillImage"/>
<dc:title/>
</cc:Work>
</rdf:RDF>
</metadata>
<g transform="translate(-9.1054 -43.98)">
<path d="m78.26 44.112-0.94361 0.7059-0.07596 0.59221-2.5311 0.02376-0.49868-0.4992h-6.2926v7.5804h6.2601l0.50023-0.50074h1.3069l-0.19172 1.0175h-3.4375l-0.63768 1.001h-3.1626v2.6696h-4.8075v-1.0516l-0.68213-0.68213h-3.9744l-0.62787-0.62787h-2.8065l-0.71727 0.71727v1.4495l0.73639 0.73639h2.2371v0.8816l-1.265 2.1911h-6.8528v0.79634h-4.2344v-0.93586h-33.808l-1.5953-0.92088-0.91984 0.02739v8.8821l2.1379 20.317 0.85214-0.11679 9.3963-12.412h0.10025l-0.38447 4.193 6.6601-5.1015h7.6641v-0.524h1.2232v-5.3325h8.6176v-1.1126h7.2642v0.3359h1.6624v4.0256h1.7203l3.4706 1.587 0.98133 0.95601h0.80357l-0.65319 3.8964-8.2858 13.931 10.677 3.3383 1.1989-0.44287 0.14211-0.95085-0.91571-1.2108 6.1185-10.14v-0.4253h3.6556v-0.0863h8.3225v0.38034l1.9441-0.23203v0.12299h0.4718l1.7854-0.47801 0.21549 3.4649 2.4567 8.8883 13.23-4.1491-2.1032-7.4383-0.30748-3.284 0.79168-0.12971 0.51935-0.23616-0.0589-0.48421-0.60358-0.43822v-6.9856l2.1038-1.4175h26.577v18.598h5.0198v-18.598h6.1479v-5.0855h23.862v1.6371l0.70177 0.70125h2.589v-2.3301h13.084v0.63614h2.3384v-0.66973h5.6643v0.71675h2.3502v-0.71469h9.0361v-3.0587h-9.0242v-0.38034h-0.27957v-1.3152h-1.8257v-1.1529h4.1372c0.91512-0.37001 1.7564-0.87708 2.498-1.5694v-1.0697h-8.9855v0.39688h-0.25477v3.4075h-5.4126v1.2103h-0.23616v0.50799h-13.098v-1.3715h1.541v-3.052h-1.5601v-1.0806h-3.2835v1.1276h-23.867v-1.4635h-37.806v0.21291h-8.2811v-1.758h-0.73484v-1.9079h-7.7799v-0.57257l10.959 0.43098 2.8427-8.3742-13.881 0.50953v-0.21704l-0.89348-0.71417zm5.131 10.907h2.7699l-0.83251 1.695h-1.9374zm-1.4056 0.06459v1.5947h-1.6356l-0.73845-1.5828zm57.88 5.9201 23.834 0.0036v1.3415h-23.834zm42.629 0.91881 5.6126 0.0083v0.42633h-5.6126c-8e-3 0 0-0.4346 0-0.4346zm-107.73 13.072h5.2033l2.0784 1.9771 0.66146 2.1487-0.76843 2.188-0.52658 0.65164 0.1173 0.38447h-8.1184l-1.6454-1.2113-0.40359-1.094h3.423z" fill="#c8c8c8" stroke="#000" stroke-width=".26458px"/>
</g>
</svg>
